# Blender v2.83.2 OBJ File: 'steve.blend'
# www.blender.org
o Steve_Cube.005
v -1.000000 -3.000000 -1.000000
v -1.000000 3.000000 -1.000000
v 1.000000 -3.000000 -1.000000
v 1.000000 3.000000 -1.000000
v -1.000000 -3.000000 1.000000
v -1.000000 3.000000 1.000000
v 1.000000 -3.000000 1.000000
v 1.000000 3.000000 1.000000
v 3.000000 13.000000 2.000000
v 3.000000 9.000000 2.000000
v -1.000000 13.000000 2.000000
v -1.000000 9.000000 2.000000
v 3.000000 13.000000 -2.000000
v 3.000000 9.000000 -2.000000
v -1.000000 13.000000 -2.000000
v -1.000000 9.000000 -2.000000
v -1.000000 3.000000 -1.000000
v -1.000000 9.000000 -1.000000
v 3.000000 3.000000 -1.000000
v 3.000000 9.000000 -1.000000
v -1.000000 3.000000 1.000000
v -1.000000 9.000000 1.000000
v 3.000000 3.000000 1.000000
v 3.000000 9.000000 1.000000
v 3.000000 3.000000 -1.000000
v 3.000000 9.000000 -1.000000
v 5.000000 3.000000 -1.000000
v 5.000000 9.000000 -1.000000
v 3.000000 3.000000 1.000000
v 3.000000 9.000000 1.000000
v 5.000000 3.000000 1.000000
v 5.000000 9.000000 1.000000
v -3.000000 3.000000 -1.000000
v -3.000000 9.000000 -1.000000
v -1.000000 3.000000 -1.000000
v -1.000000 9.000000 -1.000000
v -3.000000 3.000000 1.000000
v -3.000000 9.000000 1.000000
v -1.000000 3.000000 1.000000
v -1.000000 9.000000 1.000000
v 1.000000 -3.000000 -1.000000
v 1.000000 3.000000 -1.000000
v 3.000000 -3.000000 -1.000000
v 3.000000 3.000000 -1.000000
v 1.000000 -3.000000 1.000000
v 1.000000 3.000000 1.000000
v 3.000000 -3.000000 1.000000
v 3.000000 3.000000 1.000000
vt 0.250000 0.437500
vt 0.187500 0.250000
vt 0.250000 0.250000
vt 0.187500 0.437500
vt 0.125000 0.250000
vt 0.125000 0.437500
vt 0.062500 0.250000
vt 0.062500 0.437500
vt 0.000000 0.250000
vt 0.187500 0.500000
vt 0.125000 0.437500
vt 0.187500 0.437500
vt 0.125000 0.500000
vt 0.000000 0.437500
vt 0.125000 0.500000
vt 0.062500 0.500000
vt 0.750000 1.000000
vt 0.625000 0.875000
vt 0.750000 0.875000
vt 0.500000 0.750000
vt 0.625000 0.750000
vt 1.000000 0.875000
vt 0.875000 0.750000
vt 1.000000 0.750000
vt 0.875000 1.000000
vt 0.750000 0.875000
vt 0.875000 0.875000
vt 0.750000 0.750000
vt 0.875000 0.875000
vt 0.625000 1.000000
vt 0.500000 0.875000
vt 0.750000 1.000000
vt 0.625000 0.437500
vt 0.500000 0.250000
vt 0.625000 0.250000
vt 0.500000 0.437500
vt 0.437500 0.250000
vt 0.437500 0.437500
vt 0.312500 0.250000
vt 0.312500 0.437500
vt 0.250000 0.250000
vt 0.562500 0.500000
vt 0.437500 0.437500
vt 0.562500 0.437500
vt 0.437500 0.500000
vt 0.250000 0.437500
vt 0.437500 0.500000
vt 0.312500 0.500000
vt 1.000000 0.187500
vt 0.937500 0.000000
vt 1.000000 -0.000000
vt 0.937500 0.187500
vt 0.875000 0.000000
vt 0.875000 0.187500
vt 0.812500 0.000000
vt 0.812500 0.187500
vt 0.750000 0.000000
vt 0.937500 0.250000
vt 0.875000 0.187500
vt 0.937500 0.187500
vt 0.875000 0.250000
vt 0.750000 0.187500
vt 0.875000 0.250000
vt 0.812500 0.250000
vt 0.875000 0.437500
vt 0.812500 0.250000
vt 0.875000 0.250000
vt 0.812500 0.437500
vt 0.750000 0.250000
vt 0.750000 0.437500
vt 0.687500 0.250000
vt 0.687500 0.437500
vt 0.625000 0.250000
vt 0.812500 0.500000
vt 0.750000 0.437500
vt 0.812500 0.437500
vt 0.750000 0.500000
vt 0.625000 0.437500
vt 0.750000 0.500000
vt 0.687500 0.500000
vt 0.250000 0.187500
vt 0.187500 0.000000
vt 0.250000 0.000000
vt 0.187500 0.187500
vt 0.125000 0.000000
vt 0.125000 0.187500
vt 0.062500 0.000000
vt 0.062500 0.187500
vt -0.000000 0.000000
vt 0.187500 0.250000
vt 0.125000 0.187500
vt 0.187500 0.187500
vt 0.125000 0.250000
vt 0.000000 0.187500
vt 0.125000 0.250000
vt 0.062500 0.250000
vn 0.0000 0.0000 -1.0000
vn 1.0000 0.0000 0.0000
vn 0.0000 0.0000 1.0000
vn -1.0000 0.0000 -0.0000
vn 0.0000 -1.0000 0.0000
vn 0.0000 1.0000 0.0000
f 2/1/1 3/2/1 1/3/1
f 4/4/2 7/5/2 3/2/2
f 8/6/3 5/7/3 7/5/3
f 6/8/4 1/9/4 5/7/4
f 7/10/5 1/11/5 3/12/5
f 4/13/6 6/8/6 8/6/6
f 2/1/1 4/4/1 3/2/1
f 4/4/2 8/6/2 7/5/2
f 8/6/3 6/8/3 5/7/3
f 6/8/4 2/14/4 1/9/4
f 7/10/5 5/15/5 1/11/5
f 4/13/6 2/16/6 6/8/6
f 13/17/6 11/18/6 9/19/6
f 11/18/4 16/20/4 12/21/4
f 15/22/1 14/23/1 16/24/1
f 10/25/5 16/26/5 14/27/5
f 9/19/3 12/21/3 10/28/3
f 13/29/2 10/28/2 14/23/2
f 13/17/6 15/30/6 11/18/6
f 11/18/4 15/31/4 16/20/4
f 15/22/1 13/29/1 14/23/1
f 10/25/5 12/32/5 16/26/5
f 9/19/3 11/18/3 12/21/3
f 13/29/2 9/19/2 10/28/2
f 18/33/1 19/34/1 17/35/1
f 20/36/2 23/37/2 19/34/2
f 24/38/3 21/39/3 23/37/3
f 22/40/4 17/41/4 21/39/4
f 23/42/5 17/43/5 19/44/5
f 20/45/6 22/40/6 24/38/6
f 18/33/1 20/36/1 19/34/1
f 20/36/2 24/38/2 23/37/2
f 24/38/3 22/40/3 21/39/3
f 22/40/4 18/46/4 17/41/4
f 23/42/5 21/47/5 17/43/5
f 20/45/6 18/48/6 22/40/6
f 26/49/1 27/50/1 25/51/1
f 28/52/2 31/53/2 27/50/2
f 32/54/3 29/55/3 31/53/3
f 30/56/4 25/57/4 29/55/4
f 31/58/5 25/59/5 27/60/5
f 28/61/6 30/56/6 32/54/6
f 26/49/1 28/52/1 27/50/1
f 28/52/2 32/54/2 31/53/2
f 32/54/3 30/56/3 29/55/3
f 30/56/4 26/62/4 25/57/4
f 31/58/5 29/63/5 25/59/5
f 28/61/6 26/64/6 30/56/6
f 34/65/1 35/66/1 33/67/1
f 36/68/2 39/69/2 35/66/2
f 40/70/3 37/71/3 39/69/3
f 38/72/4 33/73/4 37/71/4
f 39/74/5 33/75/5 35/76/5
f 36/77/6 38/72/6 40/70/6
f 34/65/1 36/68/1 35/66/1
f 36/68/2 40/70/2 39/69/2
f 40/70/3 38/72/3 37/71/3
f 38/72/4 34/78/4 33/73/4
f 39/74/5 37/79/5 33/75/5
f 36/77/6 34/80/6 38/72/6
f 42/81/1 43/82/1 41/83/1
f 44/84/2 47/85/2 43/82/2
f 48/86/3 45/87/3 47/85/3
f 46/88/4 41/89/4 45/87/4
f 47/90/5 41/91/5 43/92/5
f 44/93/6 46/88/6 48/86/6
f 42/81/1 44/84/1 43/82/1
f 44/84/2 48/86/2 47/85/2
f 48/86/3 46/88/3 45/87/3
f 46/88/4 42/94/4 41/89/4
f 47/90/5 45/95/5 41/91/5
f 44/93/6 42/96/6 46/88/6
